<?xml version="1.0" encoding="UTF-8" standalone="no"?>
<!DOCTYPE svg PUBLIC "-//W3C//DTD SVG 1.1//EN" "http://www.w3.org/Graphics/SVG/1.1/DTD/svg11.dtd">
<svg xmlns="http://www.w3.org/2000/svg" version="1.1" viewBox="0.00 0.00 300.00 35.00">
<g stroke-width="2.00" fill="none" stroke-linecap="butt">
<path stroke="#dbc489" vector-effect="non-scaling-stroke" d="
  M 27.81 0.30
  Q 27.73 0.21 27.64 0.13"
/>
<path stroke="#a6a6a6" vector-effect="non-scaling-stroke" d="
  M 27.64 0.13
  L 20.83 7.03"
/>
<path stroke="#dad0ac" vector-effect="non-scaling-stroke" d="
  M 20.83 7.03
  L 7.52 7.00"
/>
<path stroke="#dbc489" vector-effect="non-scaling-stroke" d="
  M 7.52 7.00
  Q 7.45 7.21 6.88 7.16"
/>
<path stroke="#a6a6a6" vector-effect="non-scaling-stroke" d="
  M 6.88 7.16
  Q 4.20 3.33 0.00 0.36"
/>
<path stroke="#fedc7d" vector-effect="non-scaling-stroke" d="
  M 34.60 34.33
  L 28.00 27.93"
/>
<path stroke="#dbc489" vector-effect="non-scaling-stroke" d="
  M 28.00 27.93
  Q 27.86 27.64 27.69 27.48"
/>
<path stroke="#cab277" vector-effect="non-scaling-stroke" d="
  M 27.69 27.48
  L 27.64 0.13"
/>
<path stroke="#a6a6a6" vector-effect="non-scaling-stroke" d="
  M 27.69 27.48
  Q 27.64 27.63 27.43 27.66
  A 0.22 0.22 0.0 0 1 27.23 27.59
  L 20.78 20.98"
/>
<path stroke="#c9be9a" vector-effect="non-scaling-stroke" d="
  M 20.78 13.97
  L 20.83 7.03"
/>
<path stroke="#cab277" vector-effect="non-scaling-stroke" d="
  M 6.88 7.16
  L 6.61 34.40"
/>
<path stroke="#fedc7d" vector-effect="non-scaling-stroke" d="
  M 14.11 13.93
  L 7.52 7.00"
/>
<path stroke="#dbc489" vector-effect="non-scaling-stroke" d="
  M 14.23 21.01
  Q 13.63 24.48 14.16 27.96"
/>
<path stroke="#fedc7d" vector-effect="non-scaling-stroke" d="
  M 14.16 27.96
  L 7.06 35.00"
/>
<path stroke="#dad0ac" vector-effect="non-scaling-stroke" d="
  M 28.00 27.93
  L 14.16 27.96"
/>
</g>
<path fill="#b7b8b8" d="
  M 27.64 0.00
  Q 27.73 0.15 27.81 0.30
  Q 27.73 0.21 27.64 0.13
  L 20.83 7.03
  L 7.52 7.00
  Q 7.45 7.21 6.88 7.16
  Q 4.20 3.33 0.00 0.36
  Q 0.01 0.56 0.00 0.77
  Q 0.18 0.23 1.00 0.00
  L 27.64 0.00
  Z"
/>
<path fill="#ffcf59" d="
  M 34.60 34.33
  L 28.00 27.93
  Q 27.86 27.64 27.69 27.48
  L 27.64 0.13
  Q 27.73 0.21 27.81 0.30
  L 34.18 6.59
  A 1.21 1.19 -67.8 0 1 34.53 7.44
  L 34.60 34.33
  Z"
/>
<path fill="#949494" d="
  M 27.64 0.13
  L 27.69 27.48
  Q 27.64 27.63 27.43 27.66
  A 0.22 0.22 0.0 0 1 27.23 27.59
  L 20.78 20.98
  L 20.78 13.97
  L 20.83 7.03
  L 27.64 0.13
  Z"
/>
<path fill="#949494" d="
  M 6.88 7.16
  L 6.61 34.40
  L 0.00 27.74
  L 0.00 0.36
  Q 4.20 3.33 6.88 7.16
  Z"
/>
<path fill="#fde8a0" d="
  M 20.83 7.03
  L 20.78 13.97
  L 14.11 13.93
  L 7.52 7.00
  L 20.83 7.03
  Z"
/>
<rect fill="#b7b8b8" x="190.86" y="6.88" width="1.54" height="21.08" rx="0.48"/>
<path fill="#ffcf59" d="
  M 7.52 7.00
  L 14.11 13.93
  L 14.23 21.01
  Q 13.63 24.48 14.16 27.96
  L 7.06 35.00
  Q 7.04 34.98 7.02 35.00
  Q 6.58 34.61 6.61 34.40
  L 6.88 7.16
  Q 7.45 7.21 7.52 7.00
  Z"
/>
<path fill="#b7b8b8" d="
  M 50.77 6.87
  Q 51.05 6.83 55.57 6.91
  C 60.61 7.00 67.22 6.73 67.88 13.47
  C 68.58 20.74 62.57 22.15 56.75 22.13
  A 0.62 0.62 0.0 0 0 56.13 22.75
  L 56.13 27.78
  A 0.22 0.21 0.0 0 1 55.91 27.99
  L 50.52 27.99
  A 0.27 0.27 0.0 0 1 50.25 27.72
  L 50.26 7.46
  A 0.60 0.59 86.1 0 1 50.77 6.87
  Z
  M 56.13 12.29
  L 56.13 17.03
  A 0.38 0.38 0.0 0 0 56.51 17.40
  L 58.90 17.40
  A 3.15 2.61 -0.1 0 0 62.05 14.78
  L 62.05 14.50
  A 3.15 2.61 -0.1 0 0 58.90 11.90
  L 56.51 11.90
  A 0.38 0.38 0.0 0 0 56.13 12.29
  Z"
/>
<path fill="#b7b8b8" d="
  M 121.83 7.32
  A 0.36 0.36 0.0 0 1 122.19 6.96
  L 129.13 6.94
  A 10.78 10.23 -0.2 0 1 139.95 17.13
  L 139.95 17.73
  A 10.78 10.23 -0.2 0 1 129.21 28.00
  L 122.27 28.02
  A 0.36 0.36 0.0 0 1 121.91 27.66
  L 121.83 7.32
  Z
  M 123.49 9.00
  L 123.47 26.02
  A 0.50 0.50 0.0 0 0 123.96 26.52
  L 129.13 26.53
  A 9.07 8.73 0.1 0 0 138.22 17.81
  L 138.22 17.25
  A 9.07 8.73 0.1 0 0 129.17 8.51
  L 124.00 8.50
  A 0.50 0.50 0.0 0 0 123.49 9.00
  Z"
/>
<path fill="#b7b8b8" d="
  M 300.00 12.71
  L 300.00 13.96
  L 295.34 14.05
  A 0.48 0.48 0.0 0 0 294.87 14.55
  Q 295.00 18.61 294.83 22.74
  C 294.69 26.47 296.63 27.69 300.00 26.37
  L 300.00 27.82
  C 294.52 29.58 293.13 26.51 293.26 21.59
  Q 293.44 14.88 293.31 8.51
  A 0.81 0.81 0.0 0 1 294.08 7.68
  L 294.12 7.68
  A 0.74 0.74 0.0 0 1 294.90 8.43
  L 294.86 12.09
  A 0.55 0.55 0.0 0 0 295.41 12.65
  L 300.00 12.71
  Z"
/>
<path fill="#b7b8b8" d="
  M 77.81 27.02
  C 74.93 29.26 69.92 28.89 68.66 25.14
  C 67.90 22.86 68.54 20.11 70.97 18.96
  Q 73.78 17.65 77.84 18.50
  A 0.53 0.53 0.0 0 0 78.46 17.84
  L 78.32 17.39
  A 1.67 1.66 -0.6 0 0 77.13 16.23
  Q 74.49 15.55 71.40 16.70
  A 0.47 0.47 0.0 0 1 70.79 16.39
  L 69.86 13.22
  A 0.51 0.50 -19.0 0 1 70.16 12.61
  C 73.76 11.20 80.70 10.48 83.15 14.31
  C 84.99 17.18 84.13 23.31 84.26 27.32
  A 0.67 0.67 0.0 0 1 83.59 28.01
  L 79.41 28.00
  A 1.03 1.02 -11.1 0 1 78.46 27.37
  Q 78.46 27.35 78.44 27.27
  A 0.40 0.39 66.5 0 0 77.81 27.02
  Z
  M 78.6225 22.0808
  A 2.46 1.85 -17.0 0 0 75.7291 21.0308
  A 2.46 1.85 -17.0 0 0 73.9175 23.5192
  A 2.46 1.85 -17.0 0 0 76.8109 24.5692
  A 2.46 1.85 -17.0 0 0 78.6225 22.0808
  Z"
/>
<path fill="#b7b8b8" d="
  M 91.65 19.94
  C 91.67 22.93 94.64 24.86 97.01 22.61
  A 1.18 1.18 0.0 0 1 98.42 22.44
  L 101.00 23.92
  A 1.10 1.09 -50.3 0 1 101.16 25.70
  Q 95.20 30.84 89.26 26.59
  Q 86.12 24.34 86.09 19.98
  Q 86.06 15.62 89.18 13.33
  Q 95.05 9.00 101.08 14.06
  A 1.10 1.09 49.5 0 1 100.95 15.84
  L 98.39 17.36
  A 1.18 1.18 0.0 0 1 96.97 17.21
  C 94.58 14.99 91.63 16.96 91.65 19.94
  Z"
/>
<path fill="#b7b8b8" d="
  M 108.11 21.48
  A 0.29 0.29 0.0 0 0 107.86 21.91
  Q 109.96 25.75 114.20 22.98
  A 0.73 0.73 0.0 0 1 114.97 22.96
  L 117.35 24.33
  A 0.92 0.91 39.8 0 1 117.49 25.82
  Q 112.81 29.79 107.46 27.81
  C 98.10 24.35 102.16 9.10 112.40 11.59
  Q 118.59 13.09 118.55 20.81
  A 0.67 0.67 0.0 0 1 117.88 21.48
  L 108.11 21.48
  Z
  M 108.10 18.50
  L 112.78 18.54
  A 0.23 0.23 0.0 0 0 113.01 18.31
  L 113.01 18.18
  A 2.48 2.46 0.4 0 0 110.55 15.70
  L 110.37 15.70
  A 2.48 2.46 0.4 0 0 107.87 18.14
  L 107.87 18.27
  A 0.23 0.23 0.0 0 0 108.10 18.50
  Z"
/>
<path fill="#b7b8b8" d="
  M 144.29 21.67
  C 145.42 27.08 150.85 28.54 154.92 24.95
  A 0.82 0.82 0.0 0 1 155.91 24.88
  L 155.96 24.92
  A 0.60 0.60 0.0 0 1 156.08 25.81
  Q 154.18 28.05 151.06 28.32
  C 140.15 29.26 139.78 12.25 150.25 12.33
  A 6.06 6.06 0.0 0 1 155.58 15.60
  L 156.88 17.94
  A 2.05 2.05 0.0 0 1 155.09 20.99
  L 144.85 20.99
  A 0.57 0.57 0.0 0 0 144.29 21.67
  Z
  M 144.74 19.60
  L 154.82 19.60
  A 0.29 0.29 0.0 0 0 155.11 19.31
  L 155.11 19.10
  A 5.32 5.32 0.0 0 0 149.79 13.78
  L 149.77 13.78
  A 5.32 5.32 0.0 0 0 144.45 19.10
  L 144.45 19.31
  A 0.29 0.29 0.0 0 0 144.74 19.60
  Z"
/>
<path fill="#b7b8b8" d="
  M 175.63 21.02
  A 0.57 0.57 0.0 0 0 175.07 21.70
  C 176.23 27.10 181.66 28.54 185.72 24.93
  A 0.82 0.82 0.0 0 1 186.70 24.86
  L 186.76 24.90
  A 0.60 0.60 0.0 0 1 186.88 25.78
  Q 184.99 28.03 181.87 28.32
  C 170.97 29.31 170.52 12.30 180.99 12.33
  A 6.06 6.06 0.0 0 1 186.33 15.58
  L 187.64 17.91
  A 2.05 2.05 0.0 0 1 185.87 20.97
  L 175.63 21.02
  Z
  M 175.53 19.58
  L 185.59 19.62
  A 0.29 0.29 0.0 0 0 185.88 19.33
  L 185.88 19.12
  A 5.32 5.31 -89.8 0 0 180.59 13.78
  L 180.57 13.78
  A 5.32 5.31 -89.8 0 0 175.24 19.08
  L 175.24 19.29
  A 0.29 0.29 0.0 0 0 175.53 19.58
  Z"
/>
<path fill="#b7b8b8" d="
  M 204.4244 12.3183
  A 8.06 7.85 -85.2 0 1 211.5725 21.0069
  A 8.06 7.85 -85.2 0 1 203.0756 28.3817
  A 8.06 7.85 -85.2 0 1 195.9275 19.6931
  A 8.06 7.85 -85.2 0 1 204.4244 12.3183
  Z
  M 203.3707 13.7709
  A 6.59 6.19 -93.3 0 0 197.5703 20.7063
  A 6.59 6.19 -93.3 0 0 204.1293 26.9291
  A 6.59 6.19 -93.3 0 0 209.9297 19.9937
  A 6.59 6.19 -93.3 0 0 203.3707 13.7709
  Z"
/>
<path fill="#b7b8b8" d="
  M 216.98 15.06
  Q 217.55 14.48 218.19 13.93
  C 222.18 10.44 227.46 12.81 229.34 16.88
  C 232.95 24.69 223.53 32.70 216.87 25.60
  A 0.29 0.29 0.0 0 0 216.37 25.79
  L 216.39 32.00
  A 0.72 0.72 0.0 0 1 215.67 32.72
  L 215.61 32.72
  A 0.77 0.76 1.2 0 1 214.87 31.96
  L 214.86 13.19
  A 0.53 0.53 0.0 0 1 215.39 12.66
  L 215.85 12.66
  A 0.49 0.48 0.0 0 1 216.34 13.14
  L 216.34 14.80
  A 0.37 0.37 0.0 0 0 216.98 15.06
  Z
  M 222.3542 13.7902
  A 6.56 6.05 -90.4 0 0 216.3501 20.3922
  A 6.56 6.05 -90.4 0 0 222.4458 26.9098
  A 6.56 6.05 -90.4 0 0 228.4499 20.3078
  A 6.56 6.05 -90.4 0 0 222.3542 13.7902
  Z"
/>
<path fill="#b7b8b8" d="
  M 244.02 27.40
  Q 244.08 25.49 244.08 19.50
  C 244.08 16.83 243.39 14.35 240.58 13.84
  C 233.36 12.53 234.79 23.55 234.88 27.46
  A 0.49 0.49 0.0 0 1 234.39 27.96
  L 233.91 27.96
  A 0.58 0.57 0.0 0 1 233.33 27.39
  L 233.33 13.13
  A 0.44 0.44 0.0 0 1 233.77 12.69
  L 234.13 12.69
  A 0.71 0.71 0.0 0 1 234.84 13.40
  L 234.84 14.21
  A 0.33 0.33 0.0 0 0 235.40 14.45
  Q 240.38 9.71 244.76 14.97
  A 0.41 0.41 0.0 0 0 245.40 14.96
  C 248.85 10.67 254.22 11.61 256.27 16.59
  A 0.58 0.55 -57.4 0 1 256.31 16.80
  L 256.31 27.46
  A 0.54 0.54 0.0 0 1 255.77 28.00
  L 255.41 28.00
  A 0.57 0.56 -90.0 0 1 254.85 27.43
  L 254.85 17.91
  A 4.10 4.09 -3.1 0 0 250.31 13.84
  L 249.66 13.91
  A 4.55 4.55 0.0 0 0 245.60 18.43
  L 245.60 27.42
  A 0.56 0.55 90.0 0 1 245.05 27.98
  L 244.57 27.98
  A 0.56 0.55 -89.0 0 1 244.02 27.40
  Z"
/>
<path fill="#b7b8b8" d="
  M 261.68 21.01
  A 0.57 0.57 0.0 0 0 261.13 21.69
  C 262.26 27.09 267.69 28.54 271.75 24.95
  A 0.82 0.82 0.0 0 1 272.74 24.87
  L 272.79 24.91
  A 0.60 0.60 0.0 0 1 272.91 25.80
  Q 271.02 28.04 267.90 28.32
  C 257.00 29.28 256.60 12.29 267.06 12.35
  A 6.05 6.05 0.0 0 1 272.39 15.60
  L 273.70 17.94
  A 2.05 2.05 0.0 0 1 271.91 20.99
  L 261.68 21.01
  Z
  M 261.59 19.59
  L 271.61 19.63
  A 0.30 0.30 0.0 0 0 271.91 19.33
  L 271.91 19.10
  A 5.31 5.29 0.2 0 0 266.62 13.79
  A 5.31 5.29 0.2 0 0 261.29 19.06
  L 261.29 19.29
  A 0.30 0.30 0.0 0 0 261.59 19.59
  Z"
/>
<path fill="#b7b8b8" d="
  M 276.73 27.41
  L 276.73 13.25
  A 0.61 0.60 -90.0 0 1 277.33 12.64
  L 277.68 12.64
  A 0.62 0.62 0.0 0 1 278.29 13.37
  Q 278.17 14.00 278.25 14.26
  A 0.44 0.43 -32.5 0 0 278.99 14.42
  C 282.72 10.21 289.38 12.29 289.81 18.29
  Q 289.82 18.43 289.87 27.42
  A 0.55 0.55 0.0 0 1 289.32 27.97
  L 288.86 27.97
  A 0.61 0.61 0.0 0 1 288.25 27.36
  L 288.25 18.24
  A 4.44 4.44 0.0 0 0 283.32 13.83
  L 282.62 13.91
  A 4.87 4.87 0.0 0 0 278.29 18.75
  L 278.29 27.50
  A 0.49 0.49 0.0 0 1 277.80 27.99
  L 277.31 27.99
  A 0.58 0.58 0.0 0 1 276.73 27.41
  Z"
/>
<path fill="#b7b8b8" d="
  M 165.09 25.86
  Q 165.26 25.86 165.34 25.67
  Q 167.98 19.43 170.60 13.19
  A 0.85 0.84 -78.4 0 1 171.38 12.67
  L 171.93 12.67
  A 0.42 0.42 0.0 0 1 172.32 13.26
  Q 167.60 24.08 165.91 27.79
  Q 165.84 27.96 165.57 28.11
  Q 165.39 28.22 165.09 28.22
  Q 164.79 28.22 164.61 28.11
  Q 164.34 27.96 164.27 27.79
  Q 162.59 24.08 157.88 13.25
  A 0.42 0.42 0.0 0 1 158.27 12.66
  L 158.82 12.66
  A 0.85 0.84 78.5 0 1 159.60 13.19
  Q 162.21 19.43 164.85 25.67
  Q 164.93 25.86 165.09 25.86
  Z"
/>
<path fill="#b7b8b8" d="
  M 20.78 20.98
  L 27.23 27.59
  A 0.22 0.22 0.0 0 0 27.43 27.66
  Q 27.64 27.63 27.69 27.48
  Q 27.86 27.64 28.00 27.93
  L 14.16 27.96
  Q 13.63 24.48 14.23 21.01
  L 20.78 20.98
  Z"
/>
<path fill="#fde8a0" d="
  M 14.16 27.96
  L 28.00 27.93
  L 34.60 34.33
  Q 34.86 34.47 34.67 35.00
  L 7.06 35.00
  L 14.16 27.96
  Z"
/>
</svg>
